<svg xmlns="http://www.w3.org/2000/svg" width="20.178" height="20.597" viewBox="0 0 20.178 20.597">
  <g id="Group_1651" data-name="Group 1651" transform="translate(-1627.717 -251.223)">
    <path id="Path_683" data-name="Path 683" d="M455.224,474.576,457.6,472.2l3.364-3.364,1.184-.191a.756.756,0,0,0,.528-.368l1.575-2.729-1.16-1.16-2.729,1.572a.762.762,0,0,0-.368.532l-.191,1.184-3.364,3.364-2.32,2.32" transform="translate(1183.146 -210.787)" fill="none" stroke="#fafafa" stroke-linecap="round" stroke-linejoin="round" stroke-width="1"/>
    <path id="Path_684" data-name="Path 684" d="M434.481,469.021l-.729-.729a4.79,4.79,0,0,1-6.072-6.373L430.755,465l1.829-.706.706-1.829-3.076-3.076a4.79,4.79,0,0,1,6.373,6.072l2,2" transform="translate(1201 -207.199)" fill="none" stroke="#fafafa" stroke-linecap="round" stroke-linejoin="round" stroke-width="1"/>
    <path id="Path_685" data-name="Path 685" d="M461.317,487.75l5.491,5.494a2,2,0,1,1-2.832,2.832l-4.27-4.27" transform="translate(1179.427 -226.336)" fill="none" stroke="#fafafa" stroke-linecap="round" stroke-linejoin="round" stroke-width="1"/>
    <path id="Path_686" data-name="Path 686" d="M437.438,492.38l-5.337,5.337a1.471,1.471,0,0,0,0,2.077l.395.395a1.471,1.471,0,0,0,2.077,0l5.337-5.337" transform="translate(1198.086 -229.417)" fill="none" stroke="#fafafa" stroke-linecap="round" stroke-linejoin="round" stroke-width="1"/>
    <path id="Path_687" data-name="Path 687" d="M450.882,492.339l-2.645-2.645a.714.714,0,0,1,0-1.01h0a.714.714,0,0,1,1.01,0l2.645,2.645a.714.714,0,0,1,0,1.01h0A.714.714,0,0,1,450.882,492.339Z" transform="translate(1187.2 -226.818)" fill="none" stroke="#fafafa" stroke-linecap="round" stroke-linejoin="round" stroke-width="1"/>
    <line id="Line_72" data-name="Line 72" x1="3.715" y2="3.715" transform="translate(1631.901 265.34)" fill="none" stroke="#fafafa" stroke-linecap="round" stroke-linejoin="round" stroke-width="1"/>
  </g>
</svg>
