<svg xmlns="http://www.w3.org/2000/svg" width="18.079" height="16.174" viewBox="0 0 18.079 16.174">
  <g id="Group_1706" data-name="Group 1706" transform="translate(-1537.007 -249.448)">
    <g id="AdobeStock_1526466951" transform="translate(916.355 -686.819)">
      <path id="Path_679" data-name="Path 679" d="M633.579,932.9a2.162,2.162,0,0,1,2.549,2.393v6.134a5.6,5.6,0,0,1-.051,1.114,2.194,2.194,0,0,1-1.725,1.7,6.754,6.754,0,0,1-1.214.049h-7.614a9.855,9.855,0,0,0-.7.778l-1.737,1.947c-.283.313-.765,1.146-1.175.7a6.689,6.689,0,0,1,0-.911v-2.516a2.244,2.244,0,0,1-2.652-2.363v-6.3a5.558,5.558,0,0,1,.039-1.022,2.043,2.043,0,0,1,1.675-1.678,9.734,9.734,0,0,1,1.308-.025Z" transform="translate(2 3.978)" fill="none" stroke="#f4f4f4" stroke-width="1.2"/>
    </g>
    <g id="refresh-ccw-dot" transform="matrix(0.469, -0.883, 0.883, 0.469, 1537.842, 258.85)">
      <path id="Path_704" data-name="Path 704" d="M3,2V4.184H5.184" fill="none" stroke="#fafafa" stroke-linecap="round" stroke-linejoin="round" stroke-width="1"/>
      <path id="Path_705" data-name="Path 705" d="M9.551,6.28A3.275,3.275,0,0,0,4.092,3.842L3,4.825" transform="translate(0 -0.641)" fill="none" stroke="#fafafa" stroke-linecap="round" stroke-linejoin="round" stroke-width="1"/>
      <path id="Path_706" data-name="Path 706" d="M17.184,18.184V16H15" transform="translate(-7.633 -8.905)" fill="none" stroke="#fafafa" stroke-linecap="round" stroke-linejoin="round" stroke-width="1"/>
      <path id="Path_707" data-name="Path 707" d="M3,12a3.275,3.275,0,0,0,5.459,2.438l1.092-.983" transform="translate(0 -6.361)" fill="none" stroke="#fafafa" stroke-linecap="round" stroke-linejoin="round" stroke-width="1"/>
    </g>
  </g>
</svg>
